<?xml version="1.0" encoding="UTF-8"?>
<svg version="1.1" xmlns="http://www.w3.org/2000/svg" width="64" height="64">
<path d="M0 0 C0.91974609 -0.020625 1.83949219 -0.04125 2.78710938 -0.0625 C3.67076172 -0.06765625 4.55441406 -0.0728125 5.46484375 -0.078125 C6.27429443 -0.0874707 7.08374512 -0.09681641 7.91772461 -0.10644531 C10.0625 0.25 10.0625 0.25 11.84985352 1.52050781 C13.0625 3.25 13.0625 3.25 13.0625 7.25 C13.66578125 7.21519531 14.2690625 7.18039063 14.890625 7.14453125 C18.46089357 7.0236028 21.29506762 6.93179633 24.625 8.3125 C26.7839109 11.22233643 26.32734554 13.7407966 26.0625 17.25 C24.0825 18.24 24.0825 18.24 22.0625 19.25 C22.08344727 20.47106445 22.10439453 21.69212891 22.12597656 22.95019531 C22.19840159 27.48246524 22.24430888 32.01468407 22.28222656 36.54736328 C22.30233632 38.50871381 22.32962818 40.47000444 22.36425781 42.43115234 C22.41280421 45.25112695 22.43547486 48.07030865 22.453125 50.890625 C22.47377014 51.76680481 22.49441528 52.64298462 22.51568604 53.54571533 C22.51705141 57.25399508 22.46477972 59.57314429 20.54589844 62.80175781 C17.06418393 64.83218747 13.85830376 64.82333938 9.9375 64.78125 C9.15358887 64.7850769 8.36967773 64.78890381 7.56201172 64.79284668 C5.90786451 64.79556353 4.25367417 64.7882181 2.59960938 64.77148438 C0.07063838 64.75006892 -2.45549214 64.77129097 -4.984375 64.796875 C-6.59375626 64.79423168 -8.20313575 64.78910661 -9.8125 64.78125 C-10.94389404 64.79339539 -10.94389404 64.79339539 -12.09814453 64.80578613 C-15.33564234 64.74809217 -17.60597714 64.44333401 -20.42089844 62.80175781 C-22.73517766 58.90786753 -22.43288936 55.33682457 -22.328125 50.890625 C-22.31963531 49.53405792 -22.31963531 49.53405792 -22.31097412 48.15008545 C-22.28861248 45.26618147 -22.23841686 42.38352739 -22.1875 39.5 C-22.16743471 37.54298671 -22.14918399 35.58595392 -22.1328125 33.62890625 C-22.08874839 28.83545711 -22.01972252 24.04294035 -21.9375 19.25 C-23.2575 18.59 -24.5775 17.93 -25.9375 17.25 C-26.41702345 10.89631422 -26.41702345 10.89631422 -24.5 8.3125 C-20.67848146 6.72796792 -17.01887509 7.01453605 -12.9375 7.25 C-12.81375 6.280625 -12.69 5.31125 -12.5625 4.3125 C-12.35625 3.301875 -12.15 2.29125 -11.9375 1.25 C-8.29370011 -0.57189994 -4.01167515 0.02239595 0 0 Z M-8.9375 5.25 C-8.9375 5.91 -8.9375 6.57 -8.9375 7.25 C-2.9975 7.25 2.9425 7.25 9.0625 7.25 C8.7325 6.26 8.4025 5.27 8.0625 4.25 C5.3514923 2.89449615 3.14910831 3.08082793 0.125 3.0625 C-0.93589844 3.04832031 -1.99679688 3.03414063 -3.08984375 3.01953125 C-6.14027669 3.03434933 -6.14027669 3.03434933 -8.9375 5.25 Z M-20.9375 11.25 C-21.52820014 13.19603274 -21.52820014 13.19603274 -21.9375 15.25 C-20.70516415 16.7112027 -20.70516415 16.7112027 -16.96850586 16.36352539 C-15.19644393 16.3633662 -13.4243774 16.35766785 -11.65234375 16.34765625 C-10.72152481 16.3462413 -9.79070587 16.34482635 -8.8316803 16.34336853 C-5.84608809 16.33775172 -2.86056971 16.3251964 0.125 16.3125 C2.14387913 16.30748716 4.16275943 16.30292388 6.18164062 16.29882812 C11.14195572 16.28777683 16.10221532 16.27050095 21.0625 16.25 C21.65320014 14.30396726 21.65320014 14.30396726 22.0625 12.25 C20.83016415 10.7887973 20.83016415 10.7887973 17.09350586 11.13647461 C15.32144393 11.1366338 13.5493774 11.14233215 11.77734375 11.15234375 C10.84652481 11.1537587 9.91570587 11.15517365 8.9566803 11.15663147 C5.97108809 11.16224828 2.98556971 11.1748036 0 11.1875 C-2.01887913 11.19251284 -4.03775943 11.19707612 -6.05664062 11.20117188 C-11.01695572 11.21222317 -15.97721532 11.22949905 -20.9375 11.25 Z M-17.9375 20.25 C-18.02930269 25.60770698 -18.10894444 30.9626899 -18.15722656 36.32055664 C-18.17735059 38.1432418 -18.20465296 39.96586234 -18.23925781 41.78833008 C-18.28774268 44.40722588 -18.31046009 47.02526879 -18.328125 49.64453125 C-18.34877014 50.46025101 -18.36941528 51.27597076 -18.39068604 52.1164093 C-18.41438398 56.52749467 -18.41438398 56.52749467 -16.31152344 60.26293945 C-13.26714612 61.52871665 -10.86132578 61.6385297 -7.5625 61.6484375 C-6.33015625 61.65230469 -5.0978125 61.65617187 -3.828125 61.66015625 C-1.90226563 61.64275391 -1.90226563 61.64275391 0.0625 61.625 C1.34640625 61.63660156 2.6303125 61.64820313 3.953125 61.66015625 C5.80164062 61.65435547 5.80164062 61.65435547 7.6875 61.6484375 C8.81414063 61.64505371 9.94078125 61.64166992 11.1015625 61.63818359 C14.52272663 61.18966356 15.88168641 60.94982103 18.0625 58.25 C18.41769237 55.25511724 18.52877491 52.63357009 18.453125 49.64453125 C18.44463531 48.38572395 18.44463531 48.38572395 18.43597412 47.10148621 C18.41358406 44.42124367 18.36338453 41.74233837 18.3125 39.0625 C18.29243832 37.24546202 18.27418697 35.42840308 18.2578125 33.61132812 C18.21711167 29.15662258 18.13883178 24.7048077 18.0625 20.25 C6.1825 20.25 -5.6975 20.25 -17.9375 20.25 Z " fill="#FFFFFF" transform="translate(25.9375,-0.25)"/>
<path d="M0 0 C1.32 0 2.64 0 4 0 C4 10.56 4 21.12 4 32 C2.68 32 1.36 32 0 32 C0 21.44 0 10.88 0 0 Z " fill="#FFFFFF" transform="translate(24,23)"/>
<path d="M0 0 C1.32 0 2.64 0 4 0 C4 10.23 4 20.46 4 31 C2.68 31.33 1.36 31.66 0 32 C0 21.44 0 10.88 0 0 Z " fill="#FFFFFF" transform="translate(33,23)"/>
<path d="M0 0 C1.32 0 2.64 0 4 0 C4 10.56 4 21.12 4 32 C2.68 31.67 1.36 31.34 0 31 C0 20.77 0 10.54 0 0 Z " fill="#FFFFFF" transform="translate(15,23)"/>
</svg>
