<?xml version="1.0" encoding="UTF-8"?>
<svg version="1.1" xmlns="http://www.w3.org/2000/svg" width="64" height="64">
<path d="M0 0 C3 2 3 2 5 5 C5.66838482 8.39762283 5.92170732 9.81887631 5 13 C3.76904297 14.76342773 3.76904297 14.76342773 2.1171875 16.55859375 C1.48232422 17.25235107 0.84746094 17.9461084 0.19335938 18.66088867 C-0.53044922 19.43279541 -1.25425781 20.20470215 -2 21 C-2.80115234 21.87180908 -3.60230469 22.74361816 -4.42773438 23.6418457 C-6.66355925 26.04886921 -8.92508297 28.4260922 -11.21337891 30.78320312 C-12.15291379 31.75946144 -13.08336404 32.74454641 -14.00439453 33.73828125 C-20.85692208 41.11904982 -26.95878851 45.29775965 -37 47 C-38.66597548 47.04799455 -40.33461106 47.06524916 -42 47 C-41.9104227 45.66560711 -41.8022897 44.33246081 -41.6875 43 C-41.62949219 42.2575 -41.57148437 41.515 -41.51171875 40.75 C-40.04708622 32.87899769 -36.97308982 28.19716102 -31.42578125 22.65625 C-30.78311813 22.00168823 -30.14045502 21.34712646 -29.47831726 20.67272949 C-28.12387123 19.30182498 -26.76288516 17.93735413 -25.39575195 16.57910156 C-23.31265121 14.5001509 -21.266676 12.38886106 -19.22070312 10.2734375 C-17.89534429 8.94060173 -16.56793695 7.60979919 -15.23828125 6.28125 C-14.63276932 5.65013306 -14.02725739 5.01901611 -13.40339661 4.36877441 C-8.92490923 0.00813493 -6.23888055 -0.86452884 0 0 Z M-6 4 C-6.44290923 8.00346023 -6.44290923 8.00346023 -4 10.25 C-3.34 10.8275 -2.68 11.405 -2 12 C-1.01 11.67 -0.02 11.34 1 11 C0.42547254 7.06924356 0.42547254 7.06924356 -2 4 C-3.32 4 -4.64 4 -6 4 Z M-14.15478516 11.92773438 C-15.02409668 12.80751953 -15.8934082 13.68730469 -16.7890625 14.59375 C-17.25234955 15.05986694 -17.7156366 15.52598389 -18.19296265 16.00622559 C-19.67505459 17.4995339 -21.15005198 18.99963837 -22.625 20.5 C-23.62714533 21.51217325 -24.62974388 22.52389798 -25.6328125 23.53515625 C-28.09382662 26.01824993 -30.548523 28.50748617 -33 31 C-31.02 33.31 -29.04 35.62 -27 38 C-21.74825074 33.61557474 -16.86777527 28.99157907 -12.0625 24.125 C-11.37865234 23.43664063 -10.69480469 22.74828125 -9.99023438 22.0390625 C-8.32448536 20.36166489 -6.6611378 18.68196209 -5 17 C-6.36239218 14.15776803 -7.55233169 12.03972359 -10 10 C-12.23344603 9.77774986 -12.23344603 9.77774986 -14.15478516 11.92773438 Z M-36 37 C-36.33 38.65 -36.66 40.3 -37 42 C-35.02 41.67 -33.04 41.34 -31 41 C-32.36323743 38.9600281 -32.36323743 38.9600281 -34 37 C-34.66 37 -35.32 37 -36 37 Z " fill="#FFFFFF" transform="translate(59,0)"/>
<path d="M0 0 C1.33417969 0.01933594 1.33417969 0.01933594 2.6953125 0.0390625 C4.07589844 0.08933594 4.07589844 0.08933594 5.484375 0.140625 C6.42023437 0.15867187 7.35609375 0.17671875 8.3203125 0.1953125 C10.62604515 0.24236827 12.92968445 0.30808787 15.234375 0.390625 C15.234375 1.710625 15.234375 3.030625 15.234375 4.390625 C13.30271484 4.48150391 13.30271484 4.48150391 11.33203125 4.57421875 C9.65363341 4.65860747 7.97524864 4.7432563 6.296875 4.828125 C5.02166992 4.88709961 5.02166992 4.88709961 3.72070312 4.94726562 C2.91181641 4.98916016 2.10292969 5.03105469 1.26953125 5.07421875 C0.5206665 5.11087646 -0.22819824 5.14753418 -0.99975586 5.18530273 C-2.79023826 5.20833563 -2.79023826 5.20833563 -3.765625 6.390625 C-3.86376487 7.82802853 -3.8936078 9.27018827 -3.89501953 10.7109375 C-3.89817169 11.62858887 -3.90132385 12.54624023 -3.90457153 13.49169922 C-3.9025473 14.48959473 -3.90052307 15.48749023 -3.8984375 16.515625 C-3.89939423 17.53285645 -3.90035095 18.55008789 -3.90133667 19.59814453 C-3.90201861 21.75358136 -3.90016335 23.90902022 -3.89599609 26.06445312 C-3.89064805 29.37634871 -3.89594063 32.68810867 -3.90234375 36 C-3.90168297 38.08854197 -3.90040181 40.17708385 -3.8984375 42.265625 C-3.90046173 43.26352051 -3.90248596 44.26141602 -3.90457153 45.28955078 C-3.90141937 46.20720215 -3.89826721 47.12485352 -3.89501953 48.0703125 C-3.89422394 48.88226074 -3.89342834 49.69420898 -3.89260864 50.53076172 C-3.96926689 52.40608253 -3.96926689 52.40608253 -2.765625 53.390625 C-1.20015452 53.48389216 0.36950272 53.50808082 1.93774414 53.50415039 C3.43918724 53.50403709 3.43918724 53.50403709 4.97096252 53.50392151 C6.0594902 53.49876022 7.14801788 53.49359894 8.26953125 53.48828125 C9.37791855 53.4868663 10.48630585 53.48545135 11.62828064 53.48399353 C15.18450569 53.47837533 18.74066883 53.46581975 22.296875 53.453125 C24.70117097 53.44811234 27.10546792 53.44354903 29.50976562 53.43945312 C35.41799277 53.42839999 41.32617337 53.41112316 47.234375 53.390625 C47.564375 47.120625 47.894375 40.850625 48.234375 34.390625 C49.554375 34.390625 50.874375 34.390625 52.234375 34.390625 C52.36968344 37.45460951 52.4686157 40.51259626 52.546875 43.578125 C52.58876953 44.44244141 52.63066406 45.30675781 52.67382812 46.19726562 C52.68994141 47.03837891 52.70605469 47.87949219 52.72265625 48.74609375 C52.74884033 49.51590576 52.77502441 50.28571777 52.80200195 51.07885742 C51.867988 54.882805 50.44069655 56.13867058 47.234375 58.390625 C43.32627702 59.12256263 39.47800178 59.06737647 35.51171875 59.01953125 C34.37408585 59.02194321 33.23645294 59.02435516 32.06434631 59.02684021 C29.66289783 59.02586196 27.26142675 59.01247379 24.86010742 58.98754883 C21.1813516 58.95321345 17.50499394 58.96689989 13.82617188 58.98632812 C11.49217726 58.97943055 9.15818885 58.96975897 6.82421875 58.95703125 C5.72311264 58.96199112 4.62200653 58.96695099 3.48753357 58.97206116 C2.46289505 58.95622482 1.43825653 58.94038849 0.38256836 58.92407227 C-0.96714806 58.9147744 -0.96714806 58.9147744 -2.34413147 58.9052887 C-5.60005019 58.21327646 -6.78212079 57.03200043 -8.765625 54.390625 C-9.27355957 52.03833008 -9.27355957 52.03833008 -9.28320312 49.41015625 C-9.29581177 48.42233154 -9.30842041 47.43450684 -9.32141113 46.41674805 C-9.31331421 45.35625244 -9.30521729 44.29575684 -9.296875 43.203125 C-9.3007019 42.10846924 -9.30452881 41.01381348 -9.30847168 39.88598633 C-9.31119236 37.57274455 -9.30382034 35.25947208 -9.28710938 32.94628906 C-9.2657034 29.40359978 -9.28690726 25.86293864 -9.3125 22.3203125 C-9.30985675 20.07291219 -9.30473184 17.82551313 -9.296875 15.578125 C-9.30497192 14.51762939 -9.31306885 13.45713379 -9.32141113 12.36450195 C-9.22874358 5.10445831 -9.22874358 5.10445831 -7.03027344 1.71582031 C-4.42983947 0.19413472 -2.99656746 -0.07683506 0 0 Z " fill="#FFFFFF" transform="translate(8.765625,5.609375)"/>
</svg>
