<svg width="230" height="60" viewBox="0 0 230 60" fill="none" xmlns="http://www.w3.org/2000/svg">
<path d="M0.40625 23V1.18182H16.1307V5.95455H6.32955V9.70454H15.321V14.4773H6.32955V18.2273H16.0881V23H0.40625ZM29.8922 9.875V14.3068H19.665V9.875H29.8922ZM33.3066 1.18182H40.6788L45.7498 13.5398H46.0055L51.0765 1.18182H58.4487V23H52.6532V10.3864H52.4828L47.6248 22.8295H44.1305L39.2725 10.3011H39.1021V23H33.3066V1.18182ZM82.3922 12.0909C82.3922 14.5199 81.9199 16.5689 80.9753 18.2379C80.0307 19.8999 78.7559 21.1605 77.1507 22.0199C75.5456 22.8722 73.7559 23.2983 71.7814 23.2983C69.7928 23.2983 67.9959 22.8686 66.3908 22.0092C64.7928 21.1428 63.5215 19.8786 62.5769 18.2166C61.6394 16.5476 61.1706 14.5057 61.1706 12.0909C61.1706 9.66193 61.6394 7.61648 62.5769 5.95455C63.5215 4.28551 64.7928 3.02486 66.3908 2.17258C67.9959 1.31321 69.7928 0.883522 71.7814 0.883522C73.7559 0.883522 75.5456 1.31321 77.1507 2.17258C78.7559 3.02486 80.0307 4.28551 80.9753 5.95455C81.9199 7.61648 82.3922 9.66193 82.3922 12.0909ZM76.2985 12.0909C76.2985 10.7841 76.1245 9.68324 75.7765 8.78835C75.4355 7.88636 74.9277 7.20454 74.253 6.7429C73.5854 6.27415 72.7615 6.03977 71.7814 6.03977C70.8013 6.03977 69.9739 6.27415 69.2992 6.7429C68.6316 7.20454 68.1238 7.88636 67.7757 8.78835C67.4348 9.68324 67.2644 10.7841 67.2644 12.0909C67.2644 13.3977 67.4348 14.5021 67.7757 15.4041C68.1238 16.299 68.6316 16.9808 69.2992 17.4496C69.9739 17.9112 70.8013 18.142 71.7814 18.142C72.7615 18.142 73.5854 17.9112 74.253 17.4496C74.9277 16.9808 75.4355 16.299 75.7765 15.4041C76.1245 14.5021 76.2985 13.3977 76.2985 12.0909ZM104.011 1.18182V23H99.0675L91.1839 11.5369H91.0561V23H85.1328V1.18182H90.1612L97.9169 12.6023H98.0874V1.18182H104.011ZM112.736 1.18182V23H106.812V1.18182H112.736ZM114.946 5.95455V1.18182H133.909V5.95455H127.347V23H121.509V5.95455H114.946ZM156.25 12.0909C156.25 14.5199 155.777 16.5689 154.833 18.2379C153.888 19.8999 152.613 21.1605 151.008 22.0199C149.403 22.8722 147.613 23.2983 145.639 23.2983C143.65 23.2983 141.853 22.8686 140.248 22.0092C138.65 21.1428 137.379 19.8786 136.434 18.2166C135.497 16.5476 135.028 14.5057 135.028 12.0909C135.028 9.66193 135.497 7.61648 136.434 5.95455C137.379 4.28551 138.65 3.02486 140.248 2.17258C141.853 1.31321 143.65 0.883522 145.639 0.883522C147.613 0.883522 149.403 1.31321 151.008 2.17258C152.613 3.02486 153.888 4.28551 154.833 5.95455C155.777 7.61648 156.25 9.66193 156.25 12.0909ZM150.156 12.0909C150.156 10.7841 149.982 9.68324 149.634 8.78835C149.293 7.88636 148.785 7.20454 148.11 6.7429C147.443 6.27415 146.619 6.03977 145.639 6.03977C144.659 6.03977 143.831 6.27415 143.157 6.7429C142.489 7.20454 141.981 7.88636 141.633 8.78835C141.292 9.68324 141.122 10.7841 141.122 12.0909C141.122 13.3977 141.292 14.5021 141.633 15.4041C141.981 16.299 142.489 16.9808 143.157 17.4496C143.831 17.9112 144.659 18.142 145.639 18.142C146.619 18.142 147.443 17.9112 148.11 17.4496C148.785 16.9808 149.293 16.299 149.634 15.4041C149.982 14.5021 150.156 13.3977 150.156 12.0909ZM158.99 23V1.18182H168.408C170.027 1.18182 171.444 1.47656 172.659 2.06605C173.873 2.65554 174.818 3.50426 175.492 4.61222C176.167 5.72017 176.504 7.04829 176.504 8.59659C176.504 10.1591 176.156 11.4766 175.46 12.549C174.771 13.6214 173.802 14.4311 172.552 14.978C171.309 15.5249 169.857 15.7983 168.195 15.7983H162.57V11.196H167.002C167.698 11.196 168.291 11.1108 168.781 10.9403C169.278 10.7628 169.658 10.4822 169.921 10.0987C170.191 9.7152 170.325 9.21449 170.325 8.59659C170.325 7.97159 170.191 7.46378 169.921 7.07315C169.658 6.67543 169.278 6.38423 168.781 6.19957C168.291 6.00781 167.698 5.91193 167.002 5.91193H164.914V23H158.99ZM171.774 12.9858L177.229 23H170.794L165.468 12.9858H171.774ZM184.953 1.18182V23H179.029V1.18182H184.953ZM206.638 1.18182V23H201.694L193.811 11.5369H193.683V23H187.76V1.18182H192.788L200.544 12.6023H200.714V1.18182H206.638ZM223.608 8.38352C223.516 8.0071 223.371 7.67685 223.172 7.39276C222.973 7.10156 222.724 6.85653 222.426 6.65767C222.135 6.4517 221.794 6.29901 221.403 6.19957C221.02 6.09304 220.597 6.03977 220.135 6.03977C219.141 6.03977 218.292 6.2777 217.589 6.75355C216.893 7.2294 216.361 7.91477 215.991 8.80966C215.629 9.70455 215.448 10.7841 215.448 12.0483C215.448 13.3267 215.622 14.4205 215.97 15.3295C216.318 16.2386 216.836 16.9347 217.525 17.4176C218.214 17.9006 219.07 18.142 220.093 18.142C220.995 18.142 221.744 18.0107 222.341 17.7479C222.944 17.4851 223.395 17.1122 223.694 16.6293C223.992 16.1463 224.141 15.5781 224.141 14.9247L225.164 15.0312H220.178V10.8125H229.851V13.8381C229.851 15.8267 229.429 17.5277 228.584 18.9411C227.746 20.3473 226.588 21.4268 225.111 22.1797C223.64 22.9254 221.954 23.2983 220.05 23.2983C217.927 23.2983 216.062 22.8473 214.457 21.9453C212.852 21.0433 211.599 19.7578 210.697 18.0888C209.802 16.4197 209.354 14.4347 209.354 12.1335C209.354 10.3295 209.628 8.73153 210.175 7.33949C210.729 5.94744 211.496 4.77202 212.476 3.81321C213.456 2.8473 214.589 2.11932 215.874 1.62926C217.16 1.1321 218.537 0.883522 220.008 0.883522C221.3 0.883522 222.501 1.06818 223.608 1.4375C224.724 1.79972 225.707 2.31818 226.559 2.9929C227.419 3.66051 228.111 4.45241 228.637 5.36861C229.162 6.2848 229.482 7.28977 229.596 8.38352H223.608Z" fill="#09697E"/>
<path d="M0.40625 59V37.1818H9.86648C11.5284 37.1818 12.924 37.4055 14.0533 37.853C15.1896 38.3004 16.0455 38.9325 16.6207 39.7493C17.2031 40.5661 17.4943 41.5284 17.4943 42.6364C17.4943 43.4389 17.3168 44.1705 16.9616 44.831C16.6136 45.4915 16.1236 46.0455 15.4915 46.4929C14.8594 46.9332 14.1207 47.2386 13.2756 47.4091V47.6222C14.2131 47.6577 15.0653 47.8956 15.8324 48.3359C16.5994 48.7692 17.2102 49.3693 17.6648 50.1364C18.1193 50.8963 18.3466 51.7912 18.3466 52.821C18.3466 54.0142 18.0341 55.076 17.4091 56.0064C16.7912 56.9368 15.9105 57.6683 14.767 58.201C13.6236 58.7337 12.2599 59 10.6761 59H0.40625ZM6.32955 54.2699H9.09943C10.0938 54.2699 10.8395 54.0852 11.3366 53.7159C11.8338 53.3395 12.0824 52.7855 12.0824 52.054C12.0824 51.5426 11.9652 51.1094 11.7308 50.7543C11.4964 50.3991 11.1626 50.1293 10.7294 49.9446C10.3033 49.7599 9.78835 49.6676 9.18466 49.6676H6.32955V54.2699ZM6.32955 46.0028H8.75852C9.27699 46.0028 9.73509 45.9212 10.1328 45.7578C10.5305 45.5945 10.8395 45.3601 11.0597 45.0547C11.2869 44.7422 11.4006 44.3622 11.4006 43.9148C11.4006 43.2401 11.1591 42.7251 10.6761 42.37C10.1932 42.0078 9.58239 41.8267 8.84375 41.8267H6.32955V46.0028ZM20.4453 59V37.1818H36.1697V41.9545H26.3686V45.7045H35.3601V50.4773H26.3686V54.2273H36.1271V59H20.4453ZM44.775 59H38.383L45.5847 37.1818H53.6813L60.883 59H54.4909L49.7182 43.1903H49.5478L44.775 59ZM43.5819 50.392H55.5989V54.8239H43.5819V50.392ZM73.8961 44C73.8393 43.2898 73.573 42.7358 73.0971 42.3381C72.6284 41.9403 71.9146 41.7415 70.9558 41.7415C70.345 41.7415 69.8443 41.8161 69.4537 41.9652C69.0701 42.1072 68.786 42.3026 68.6014 42.5511C68.4167 42.7997 68.3208 43.0838 68.3137 43.4034C68.2995 43.6662 68.3457 43.9041 68.4522 44.1172C68.5659 44.3232 68.7434 44.5114 68.9849 44.6818C69.2264 44.8452 69.5353 44.9943 69.9118 45.1293C70.2882 45.2642 70.7356 45.3849 71.2541 45.4915L73.0439 45.875C74.2512 46.1307 75.2846 46.468 76.144 46.8871C77.0034 47.3061 77.7065 47.7997 78.2534 48.3679C78.8002 48.929 79.2015 49.5611 79.4572 50.2642C79.72 50.9673 79.8549 51.7344 79.862 52.5653C79.8549 54 79.4963 55.2145 78.786 56.2088C78.0758 57.2031 77.0602 57.9595 75.7392 58.478C74.4252 58.9964 72.845 59.2557 70.9984 59.2557C69.1021 59.2557 67.4473 58.9751 66.0339 58.4141C64.6277 57.853 63.5339 56.9901 62.7527 55.8253C61.9785 54.6534 61.5879 53.1548 61.5808 51.3295H67.2058C67.2413 51.9972 67.4082 52.5582 67.7065 53.0128C68.0048 53.4673 68.4238 53.8118 68.9636 54.0462C69.5105 54.2805 70.1603 54.3977 70.9132 54.3977C71.5453 54.3977 72.0744 54.3196 72.5005 54.1634C72.9267 54.0071 73.2498 53.7905 73.47 53.5135C73.6902 53.2365 73.8038 52.9205 73.8109 52.5653C73.8038 52.2315 73.6937 51.9403 73.4806 51.6918C73.2747 51.4361 72.9338 51.2088 72.4579 51.0099C71.9821 50.804 71.3393 50.6122 70.5297 50.4347L68.3564 49.9659C66.4245 49.5469 64.9011 48.8473 63.786 47.8672C62.6781 46.88 62.1277 45.5341 62.1348 43.8295C62.1277 42.4446 62.497 41.2337 63.2427 40.1967C63.9956 39.1527 65.036 38.3395 66.3642 37.7571C67.6994 37.1747 69.2299 36.8835 70.9558 36.8835C72.7172 36.8835 74.2406 37.1783 75.5261 37.7678C76.8116 38.3572 77.8024 39.1882 78.4984 40.2607C79.2015 41.326 79.5566 42.5724 79.5637 44H73.8961ZM88.0385 37.1818V59H82.1152V37.1818H88.0385ZM102.607 44C102.55 43.2898 102.284 42.7358 101.808 42.3381C101.339 41.9403 100.626 41.7415 99.6667 41.7415C99.0559 41.7415 98.5552 41.8161 98.1646 41.9652C97.7811 42.1072 97.497 42.3026 97.3123 42.5511C97.1277 42.7997 97.0318 43.0838 97.0247 43.4034C97.0105 43.6662 97.0566 43.9041 97.1632 44.1172C97.2768 44.3232 97.4544 44.5114 97.6958 44.6818C97.9373 44.8452 98.2463 44.9943 98.6227 45.1293C98.9991 45.2642 99.4466 45.3849 99.965 45.4915L101.755 45.875C102.962 46.1307 103.996 46.468 104.855 46.8871C105.714 47.3061 106.417 47.7997 106.964 48.3679C107.511 48.929 107.912 49.5611 108.168 50.2642C108.431 50.9673 108.566 51.7344 108.573 52.5653C108.566 54 108.207 55.2145 107.497 56.2088C106.787 57.2031 105.771 57.9595 104.45 58.478C103.136 58.9964 101.556 59.2557 99.7093 59.2557C97.813 59.2557 96.1582 58.9751 94.7449 58.4141C93.3386 57.853 92.2449 56.9901 91.4636 55.8253C90.6895 54.6534 90.2988 53.1548 90.2917 51.3295H95.9167C95.9522 51.9972 96.1191 52.5582 96.4174 53.0128C96.7157 53.4673 97.1348 53.8118 97.6745 54.0462C98.2214 54.2805 98.8713 54.3977 99.6241 54.3977C100.256 54.3977 100.785 54.3196 101.211 54.1634C101.638 54.0071 101.961 53.7905 102.181 53.5135C102.401 53.2365 102.515 52.9205 102.522 52.5653C102.515 52.2315 102.405 51.9403 102.192 51.6918C101.986 51.4361 101.645 51.2088 101.169 51.0099C100.693 50.804 100.05 50.6122 99.2406 50.4347L97.0673 49.9659C95.1355 49.5469 93.612 48.8473 92.497 47.8672C91.389 46.88 90.8386 45.5341 90.8457 43.8295C90.8386 42.4446 91.2079 41.2337 91.9537 40.1967C92.7065 39.1527 93.747 38.3395 95.0751 37.7571C96.4103 37.1747 97.9409 36.8835 99.6667 36.8835C101.428 36.8835 102.952 37.1783 104.237 37.7678C105.523 38.3572 106.513 39.1882 107.209 40.2607C107.912 41.326 108.268 42.5724 108.275 44H102.607ZM116.366 59L109.931 37.1818H116.536L119.519 50.6051H119.69L123.227 37.1818H128.426L131.963 50.6477H132.133L135.116 37.1818H141.721L135.286 59H129.619L125.911 46.8125H125.741L122.034 59H116.366ZM146.757 59H140.365L147.567 37.1818H155.664L162.865 59H156.473L151.701 43.1903H151.53L146.757 59ZM145.564 50.392H157.581V54.8239H145.564V50.392Z" fill="#E8BE00"/>
</svg>
