<svg width="608" height="75" viewBox="0 0 608 75" fill="none" xmlns="http://www.w3.org/2000/svg">
<path d="M607.08 74L454.08 74.1656L483.054 34.3418L454 0.165682L606.999 4.41074e-05L607.08 74Z" fill="#013F4E"/>
<path d="M454.247 74.1655L300.08 74.3324L329.275 34.5083L300 0.332405L454.166 0.165504L485.037 34.3397L454.247 74.1655Z" fill="#09697E"/>
<path d="M303.413 74.3287L150.08 74.4947L179.117 34.6708L150 0.494775L303.333 0.328776L334.037 34.5031L303.413 74.3287Z" fill="#1D7D94"/>
<path d="M153.413 74.4912L0.0800657 74.6572L29.1174 34.8333L-4.66625e-05 0.65725L153.333 0.491252L184.037 34.6656L153.413 74.4912Z" fill="#398A9D"/>
<path d="M62.3111 44V29.4545H65.3864V41.4645H71.6222V44H62.3111ZM86.4588 36.7273C86.4588 38.3134 86.1581 39.6629 85.5568 40.7756C84.9602 41.8883 84.1458 42.7382 83.1136 43.3253C82.0862 43.9077 80.9309 44.1989 79.6477 44.1989C78.3551 44.1989 77.1951 43.9053 76.1676 43.3182C75.1402 42.7311 74.3281 41.8812 73.7315 40.7685C73.1349 39.6558 72.8366 38.3087 72.8366 36.7273C72.8366 35.1411 73.1349 33.7917 73.7315 32.679C74.3281 31.5663 75.1402 30.7187 76.1676 30.1364C77.1951 29.5492 78.3551 29.2557 79.6477 29.2557C80.9309 29.2557 82.0862 29.5492 83.1136 30.1364C84.1458 30.7187 84.9602 31.5663 85.5568 32.679C86.1581 33.7917 86.4588 35.1411 86.4588 36.7273ZM83.3409 36.7273C83.3409 35.6998 83.187 34.8333 82.8793 34.1278C82.5762 33.4223 82.1477 32.8873 81.5938 32.5227C81.0398 32.1581 80.3911 31.9759 79.6477 31.9759C78.9044 31.9759 78.2557 32.1581 77.7017 32.5227C77.1477 32.8873 76.7169 33.4223 76.4091 34.1278C76.1061 34.8333 75.9545 35.6998 75.9545 36.7273C75.9545 37.7547 76.1061 38.6212 76.4091 39.3267C76.7169 40.0322 77.1477 40.5672 77.7017 40.9318C78.2557 41.2964 78.9044 41.4787 79.6477 41.4787C80.3911 41.4787 81.0398 41.2964 81.5938 40.9318C82.1477 40.5672 82.5762 40.0322 82.8793 39.3267C83.187 38.6212 83.3409 37.7547 83.3409 36.7273ZM98.3817 34.1562C98.2823 33.8106 98.1426 33.5052 97.9627 33.2401C97.7828 32.9702 97.5626 32.7429 97.3022 32.5582C97.0465 32.3688 96.753 32.2244 96.4215 32.125C96.0948 32.0256 95.7326 31.9759 95.3349 31.9759C94.5915 31.9759 93.9381 32.1605 93.3746 32.5298C92.8159 32.8991 92.3803 33.4366 92.0678 34.142C91.7553 34.8428 91.5991 35.6998 91.5991 36.7131C91.5991 37.7263 91.753 38.5881 92.0607 39.2983C92.3685 40.0085 92.8041 40.5507 93.3675 40.9247C93.931 41.294 94.5962 41.4787 95.3633 41.4787C96.0593 41.4787 96.6535 41.3556 97.146 41.1094C97.6431 40.8584 98.0219 40.5057 98.2823 40.0511C98.5475 39.5966 98.68 39.0592 98.68 38.4389L99.305 38.5312H95.555V36.2159H101.642V38.0483C101.642 39.3267 101.372 40.4252 100.832 41.3438C100.292 42.2576 99.5489 42.9631 98.6019 43.4602C97.6549 43.9527 96.5707 44.1989 95.3491 44.1989C93.9854 44.1989 92.7875 43.8982 91.7553 43.2969C90.7231 42.6908 89.9182 41.8314 89.3406 40.7188C88.7676 39.6013 88.4812 38.2756 88.4812 36.7415C88.4812 35.5625 88.6516 34.5114 88.9925 33.5881C89.3382 32.66 89.8211 31.8741 90.4414 31.2301C91.0617 30.5862 91.7837 30.0961 92.6076 29.7599C93.4315 29.4238 94.324 29.2557 95.2852 29.2557C96.109 29.2557 96.8761 29.3764 97.5863 29.6179C98.2965 29.8546 98.9263 30.1908 99.4755 30.6264C100.029 31.062 100.482 31.5805 100.832 32.1818C101.182 32.7784 101.407 33.4366 101.507 34.1562H98.3817ZM107.027 29.4545V44H103.952V29.4545H107.027ZM121.723 29.4545V44H119.067L112.739 34.8452H112.632V44H109.557V29.4545H112.256L118.534 38.6023H118.662V29.4545H121.723Z" fill="#F5F5F5"/>
<path d="M207.169 18.4545H210.244V27.9006C210.244 28.9612 209.99 29.8892 209.484 30.6847C208.982 31.4801 208.279 32.1004 207.374 32.5455C206.47 32.9858 205.417 33.206 204.214 33.206C203.007 33.206 201.951 32.9858 201.046 32.5455C200.142 32.1004 199.439 31.4801 198.937 30.6847C198.435 29.8892 198.184 28.9612 198.184 27.9006V18.4545H201.259V27.6378C201.259 28.1918 201.38 28.6842 201.622 29.1151C201.868 29.5459 202.213 29.8845 202.659 30.1307C203.104 30.3769 203.622 30.5 204.214 30.5C204.811 30.5 205.329 30.3769 205.769 30.1307C206.214 29.8845 206.558 29.5459 206.799 29.1151C207.045 28.6842 207.169 28.1918 207.169 27.6378V18.4545ZM224.94 18.4545V33H222.284L215.956 23.8452H215.849V33H212.774V18.4545H215.473L221.751 27.6023H221.879V18.4545H224.94ZM237.126 23.1562C237.026 22.8106 236.887 22.5052 236.707 22.2401C236.527 21.9702 236.307 21.7429 236.046 21.5582C235.791 21.3688 235.497 21.2244 235.166 21.125C234.839 21.0256 234.477 20.9759 234.079 20.9759C233.336 20.9759 232.682 21.1605 232.119 21.5298C231.56 21.8991 231.124 22.4366 230.812 23.142C230.499 23.8428 230.343 24.6998 230.343 25.7131C230.343 26.7263 230.497 27.5881 230.805 28.2983C231.113 29.0085 231.548 29.5507 232.112 29.9247C232.675 30.294 233.34 30.4787 234.107 30.4787C234.803 30.4787 235.398 30.3556 235.89 30.1094C236.387 29.8584 236.766 29.5057 237.026 29.0511C237.292 28.5966 237.424 28.0592 237.424 27.4389L238.049 27.5312H234.299V25.2159H240.386V27.0483C240.386 28.3267 240.116 29.4252 239.576 30.3438C239.036 31.2576 238.293 31.9631 237.346 32.4602C236.399 32.9527 235.315 33.1989 234.093 33.1989C232.73 33.1989 231.532 32.8982 230.499 32.2969C229.467 31.6908 228.662 30.8314 228.085 29.7188C227.512 28.6013 227.225 27.2756 227.225 25.7415C227.225 24.5625 227.396 23.5114 227.737 22.5881C228.082 21.66 228.565 20.8741 229.186 20.2301C229.806 19.5862 230.528 19.0961 231.352 18.7599C232.176 18.4238 233.068 18.2557 234.029 18.2557C234.853 18.2557 235.62 18.3764 236.33 18.6179C237.041 18.8546 237.67 19.1908 238.22 19.6264C238.774 20.062 239.226 20.5805 239.576 21.1818C239.927 21.7784 240.151 22.4366 240.251 23.1562H237.126ZM252.341 23.1562C252.241 22.8106 252.102 22.5052 251.922 22.2401C251.742 21.9702 251.522 21.7429 251.261 21.5582C251.006 21.3688 250.712 21.2244 250.381 21.125C250.054 21.0256 249.692 20.9759 249.294 20.9759C248.55 20.9759 247.897 21.1605 247.334 21.5298C246.775 21.8991 246.339 22.4366 246.027 23.142C245.714 23.8428 245.558 24.6998 245.558 25.7131C245.558 26.7263 245.712 27.5881 246.02 28.2983C246.327 29.0085 246.763 29.5507 247.327 29.9247C247.89 30.294 248.555 30.4787 249.322 30.4787C250.018 30.4787 250.613 30.3556 251.105 30.1094C251.602 29.8584 251.981 29.5057 252.241 29.0511C252.506 28.5966 252.639 28.0592 252.639 27.4389L253.264 27.5312H249.514V25.2159H255.601V27.0483C255.601 28.3267 255.331 29.4252 254.791 30.3438C254.251 31.2576 253.508 31.9631 252.561 32.4602C251.614 32.9527 250.53 33.1989 249.308 33.1989C247.944 33.1989 246.747 32.8982 245.714 32.2969C244.682 31.6908 243.877 30.8314 243.3 29.7188C242.727 28.6013 242.44 27.2756 242.44 25.7415C242.44 24.5625 242.611 23.5114 242.952 22.5881C243.297 21.66 243.78 20.8741 244.4 20.2301C245.021 19.5862 245.743 19.0961 246.567 18.7599C247.39 18.4238 248.283 18.2557 249.244 18.2557C250.068 18.2557 250.835 18.3764 251.545 18.6179C252.256 18.8546 252.885 19.1908 253.434 19.6264C253.988 20.062 254.441 20.5805 254.791 21.1818C255.141 21.7784 255.366 22.4366 255.466 23.1562H252.341ZM259.969 33H256.673L261.694 18.4545H265.657L270.672 33H267.376L263.733 21.7784H263.619L259.969 33ZM259.763 27.2827H267.547V29.6832H259.763V27.2827ZM272.422 33V18.4545H275.498V24.456H281.741V18.4545H284.809V33H281.741V26.9915H275.498V33H272.422ZM193.731 57V42.4545H196.806V54.4645H203.042V57H193.731ZM207.957 57H204.661L209.683 42.4545H213.646L218.66 57H215.365L211.721 45.7784H211.607L207.957 57ZM207.751 51.2827H215.535V53.6832H207.751V51.2827ZM220.411 57V42.4545H226.149C227.253 42.4545 228.192 42.6652 228.969 43.0866C229.745 43.5033 230.337 44.0833 230.744 44.8267C231.156 45.5653 231.362 46.4176 231.362 47.3835C231.362 48.3494 231.154 49.2017 230.737 49.9403C230.321 50.679 229.717 51.2543 228.926 51.6662C228.14 52.0781 227.189 52.2841 226.071 52.2841H222.414V49.8196H225.574C226.166 49.8196 226.654 49.7178 227.037 49.5142C227.425 49.3059 227.714 49.0194 227.904 48.6548C228.098 48.2855 228.195 47.8617 228.195 47.3835C228.195 46.9006 228.098 46.4792 227.904 46.1193C227.714 45.7547 227.425 45.473 227.037 45.2741C226.649 45.0705 226.156 44.9688 225.56 44.9688H223.486V57H220.411ZM246.726 49.7273C246.726 51.3134 246.426 52.6629 245.824 53.7756C245.228 54.8883 244.413 55.7382 243.381 56.3253C242.354 56.9077 241.198 57.1989 239.915 57.1989C238.623 57.1989 237.463 56.9053 236.435 56.3182C235.408 55.7311 234.596 54.8812 233.999 53.7685C233.403 52.6558 233.104 51.3087 233.104 49.7273C233.104 48.1411 233.403 46.7917 233.999 45.679C234.596 44.5663 235.408 43.7187 236.435 43.1364C237.463 42.5492 238.623 42.2557 239.915 42.2557C241.198 42.2557 242.354 42.5492 243.381 43.1364C244.413 43.7187 245.228 44.5663 245.824 45.679C246.426 46.7917 246.726 48.1411 246.726 49.7273ZM243.608 49.7273C243.608 48.6998 243.455 47.8333 243.147 47.1278C242.844 46.4223 242.415 45.8873 241.861 45.5227C241.307 45.1581 240.659 44.9759 239.915 44.9759C239.172 44.9759 238.523 45.1581 237.969 45.5227C237.415 45.8873 236.984 46.4223 236.677 47.1278C236.374 47.8333 236.222 48.6998 236.222 49.7273C236.222 50.7547 236.374 51.6212 236.677 52.3267C236.984 53.0322 237.415 53.5672 237.969 53.9318C238.523 54.2964 239.172 54.4787 239.915 54.4787C240.659 54.4787 241.307 54.2964 241.861 53.9318C242.415 53.5672 242.844 53.0322 243.147 52.3267C243.455 51.6212 243.608 50.7547 243.608 49.7273ZM249.004 57V42.4545H254.743C255.842 42.4545 256.779 42.651 257.556 43.044C258.337 43.4323 258.931 43.9839 259.338 44.6989C259.75 45.4091 259.956 46.2448 259.956 47.206C259.956 48.1719 259.748 49.0028 259.331 49.6989C258.914 50.3902 258.311 50.9205 257.52 51.2898C256.734 51.6591 255.782 51.8438 254.665 51.8438H250.823V49.3722H254.168C254.755 49.3722 255.243 49.2917 255.631 49.1307C256.019 48.9697 256.308 48.7282 256.497 48.4062C256.691 48.0843 256.789 47.6842 256.789 47.206C256.789 46.723 256.691 46.3158 256.497 45.9844C256.308 45.6529 256.017 45.402 255.624 45.2315C255.235 45.0563 254.745 44.9688 254.154 44.9688H252.08V57H249.004ZM256.86 50.3807L260.475 57H257.08L253.543 50.3807H256.86ZM264.637 57H261.341L266.362 42.4545H270.325L275.34 57H272.044L268.401 45.7784H268.287L264.637 57ZM264.431 51.2827H272.215V53.6832H264.431V51.2827ZM289.257 42.4545V57H286.6L280.272 47.8452H280.166V57H277.09V42.4545H279.789L286.068 51.6023H286.195V42.4545H289.257Z" fill="#F5F5F5"/>
<path d="M351.508 33V18.4545H361.309V20.9901H354.584V24.456H360.805V26.9915H354.584V30.4645H361.338V33H351.508ZM366.382 18.4545L369.898 29.5057H370.033L373.556 18.4545H376.965L371.95 33H367.987L362.966 18.4545H366.382ZM379.289 33H375.993L381.015 18.4545H384.978L389.992 33H386.697L383.053 21.7784H382.939L379.289 33ZM379.083 27.2827H386.867V29.6832H379.083V27.2827ZM391.743 33V18.4545H394.818V30.4645H401.054V33H391.743ZM412.075 18.4545H415.15V27.9006C415.15 28.9612 414.897 29.8892 414.39 30.6847C413.888 31.4801 413.185 32.1004 412.281 32.5455C411.376 32.9858 410.323 33.206 409.12 33.206C407.913 33.206 406.857 32.9858 405.953 32.5455C405.048 32.1004 404.345 31.4801 403.843 30.6847C403.341 29.8892 403.09 28.9612 403.09 27.9006V18.4545H406.166V27.6378C406.166 28.1918 406.286 28.6842 406.528 29.1151C406.774 29.5459 407.12 29.8845 407.565 30.1307C408.01 30.3769 408.528 30.5 409.12 30.5C409.717 30.5 410.235 30.3769 410.676 30.1307C411.121 29.8845 411.464 29.5459 411.705 29.1151C411.952 28.6842 412.075 28.1918 412.075 27.6378V18.4545ZM420.187 33H416.892L421.913 18.4545H425.876L430.89 33H427.595L423.952 21.7784H423.838L420.187 33ZM419.981 27.2827H427.765V29.6832H419.981V27.2827ZM440.2 22.6378C440.143 22.0649 439.899 21.6198 439.468 21.3026C439.037 20.9853 438.453 20.8267 437.714 20.8267C437.212 20.8267 436.788 20.8977 436.443 21.0398C436.097 21.1771 435.832 21.3688 435.647 21.6151C435.467 21.8613 435.377 22.1406 435.377 22.4531C435.368 22.7135 435.422 22.9408 435.541 23.1349C435.664 23.3291 435.832 23.4972 436.045 23.6392C436.258 23.7765 436.504 23.8973 436.784 24.0014C437.063 24.1009 437.361 24.1861 437.678 24.2571L438.985 24.5696C439.62 24.7116 440.202 24.901 440.732 25.1378C441.263 25.3745 441.722 25.6657 442.11 26.0114C442.499 26.357 442.799 26.7642 443.012 27.233C443.23 27.7017 443.341 28.2391 443.346 28.8452C443.341 29.7353 443.114 30.5071 442.664 31.1605C442.219 31.8092 441.575 32.3134 440.732 32.6733C439.894 33.0284 438.883 33.206 437.7 33.206C436.526 33.206 435.503 33.026 434.632 32.6662C433.765 32.3063 433.088 31.7737 432.6 31.0682C432.117 30.358 431.864 29.4796 431.84 28.4332H434.816C434.849 28.9209 434.989 29.3281 435.235 29.6548C435.486 29.9768 435.82 30.2206 436.237 30.3864C436.658 30.5473 437.134 30.6278 437.664 30.6278C438.185 30.6278 438.637 30.5521 439.021 30.4006C439.409 30.2491 439.71 30.0384 439.923 29.7685C440.136 29.4986 440.242 29.1884 440.242 28.8381C440.242 28.5114 440.145 28.2367 439.951 28.0142C439.762 27.7917 439.482 27.6023 439.113 27.446C438.749 27.2898 438.301 27.1477 437.771 27.0199L436.187 26.6222C434.961 26.3239 433.992 25.8575 433.282 25.223C432.572 24.5885 432.219 23.7339 432.224 22.6591C432.219 21.7784 432.454 21.009 432.927 20.3509C433.405 19.6927 434.061 19.179 434.894 18.8097C435.728 18.4403 436.675 18.2557 437.735 18.2557C438.815 18.2557 439.757 18.4403 440.562 18.8097C441.372 19.179 442.001 19.6927 442.451 20.3509C442.901 21.009 443.133 21.7713 443.147 22.6378H440.2ZM448.49 18.4545V33H445.415V18.4545H448.49ZM352.231 57V42.4545H355.306V54.4645H361.542V57H352.231ZM366.457 57H363.161L368.183 42.4545H372.146L377.16 57H373.865L370.221 45.7784H370.107L366.457 57ZM366.251 51.2827H374.035V53.6832H366.251V51.2827ZM378.911 57V42.4545H384.649C385.753 42.4545 386.692 42.6652 387.469 43.0866C388.245 43.5033 388.837 44.0833 389.244 44.8267C389.656 45.5653 389.862 46.4176 389.862 47.3835C389.862 48.3494 389.654 49.2017 389.237 49.9403C388.821 50.679 388.217 51.2543 387.426 51.6662C386.64 52.0781 385.689 52.2841 384.571 52.2841H380.914V49.8196H384.074C384.666 49.8196 385.154 49.7178 385.537 49.5142C385.925 49.3059 386.214 49.0194 386.404 48.6548C386.598 48.2855 386.695 47.8617 386.695 47.3835C386.695 46.9006 386.598 46.4792 386.404 46.1193C386.214 45.7547 385.925 45.473 385.537 45.2741C385.149 45.0705 384.656 44.9688 384.06 44.9688H381.986V57H378.911ZM405.226 49.7273C405.226 51.3134 404.926 52.6629 404.324 53.7756C403.728 54.8883 402.913 55.7382 401.881 56.3253C400.854 56.9077 399.698 57.1989 398.415 57.1989C397.123 57.1989 395.963 56.9053 394.935 56.3182C393.908 55.7311 393.096 54.8812 392.499 53.7685C391.903 52.6558 391.604 51.3087 391.604 49.7273C391.604 48.1411 391.903 46.7917 392.499 45.679C393.096 44.5663 393.908 43.7187 394.935 43.1364C395.963 42.5492 397.123 42.2557 398.415 42.2557C399.698 42.2557 400.854 42.5492 401.881 43.1364C402.913 43.7187 403.728 44.5663 404.324 45.679C404.926 46.7917 405.226 48.1411 405.226 49.7273ZM402.108 49.7273C402.108 48.6998 401.955 47.8333 401.647 47.1278C401.344 46.4223 400.915 45.8873 400.361 45.5227C399.807 45.1581 399.159 44.9759 398.415 44.9759C397.672 44.9759 397.023 45.1581 396.469 45.5227C395.915 45.8873 395.484 46.4223 395.177 47.1278C394.874 47.8333 394.722 48.6998 394.722 49.7273C394.722 50.7547 394.874 51.6212 395.177 52.3267C395.484 53.0322 395.915 53.5672 396.469 53.9318C397.023 54.2964 397.672 54.4787 398.415 54.4787C399.159 54.4787 399.807 54.2964 400.361 53.9318C400.915 53.5672 401.344 53.0322 401.647 52.3267C401.955 51.6212 402.108 50.7547 402.108 49.7273ZM407.504 57V42.4545H413.243C414.342 42.4545 415.279 42.651 416.056 43.044C416.837 43.4323 417.431 43.9839 417.838 44.6989C418.25 45.4091 418.456 46.2448 418.456 47.206C418.456 48.1719 418.248 49.0028 417.831 49.6989C417.414 50.3902 416.811 50.9205 416.02 51.2898C415.234 51.6591 414.282 51.8438 413.165 51.8438H409.323V49.3722H412.668C413.255 49.3722 413.743 49.2917 414.131 49.1307C414.519 48.9697 414.808 48.7282 414.997 48.4062C415.191 48.0843 415.289 47.6842 415.289 47.206C415.289 46.723 415.191 46.3158 414.997 45.9844C414.808 45.6529 414.517 45.402 414.124 45.2315C413.735 45.0563 413.245 44.9688 412.654 44.9688H410.58V57H407.504ZM415.36 50.3807L418.975 57H415.58L412.043 50.3807H415.36ZM423.137 57H419.841L424.862 42.4545H428.825L433.84 57H430.544L426.901 45.7784H426.787L423.137 57ZM422.931 51.2827H430.715V53.6832H422.931V51.2827ZM447.757 42.4545V57H445.1L438.772 47.8452H438.666V57H435.59V42.4545H438.289L444.568 51.6023H444.695V42.4545H447.757Z" fill="#E7E7E7"/>
<path d="M525.094 45H521.798L526.819 30.4545H530.782L535.797 45H532.501L528.858 33.7784H528.744L525.094 45ZM524.888 39.2827H532.672V41.6832H524.888V39.2827ZM549.698 35.5469H546.587C546.53 35.1444 546.414 34.7869 546.239 34.4744C546.064 34.1572 545.839 33.8873 545.564 33.6648C545.289 33.4422 544.972 33.2718 544.612 33.1534C544.257 33.035 543.871 32.9759 543.455 32.9759C542.702 32.9759 542.046 33.1629 541.487 33.5369C540.929 33.9062 540.495 34.446 540.188 35.1562C539.88 35.8617 539.726 36.7187 539.726 37.7273C539.726 38.7642 539.88 39.6354 540.188 40.3409C540.5 41.0464 540.936 41.5791 541.494 41.9389C542.053 42.2988 542.7 42.4787 543.433 42.4787C543.845 42.4787 544.227 42.4242 544.577 42.3153C544.932 42.2064 545.247 42.0478 545.521 41.8395C545.796 41.6264 546.023 41.3684 546.203 41.0653C546.388 40.7623 546.516 40.4167 546.587 40.0284L549.698 40.0426C549.617 40.7102 549.416 41.3542 549.094 41.9744C548.777 42.59 548.348 43.1416 547.808 43.6293C547.273 44.1122 546.634 44.4957 545.891 44.7798C545.152 45.0592 544.316 45.1989 543.384 45.1989C542.086 45.1989 540.926 44.9053 539.904 44.3182C538.886 43.7311 538.081 42.8812 537.489 41.7685C536.902 40.6558 536.608 39.3087 536.608 37.7273C536.608 36.1411 536.906 34.7917 537.503 33.679C538.1 32.5663 538.909 31.7187 539.932 31.1364C540.955 30.5492 542.105 30.2557 543.384 30.2557C544.227 30.2557 545.008 30.3741 545.727 30.6108C546.452 30.8475 547.093 31.1932 547.652 31.6477C548.211 32.0975 548.665 32.6491 549.016 33.3026C549.371 33.956 549.598 34.7041 549.698 35.5469ZM564.737 35.5469H561.626C561.569 35.1444 561.453 34.7869 561.278 34.4744C561.103 34.1572 560.878 33.8873 560.603 33.6648C560.329 33.4422 560.011 33.2718 559.651 33.1534C559.296 33.035 558.91 32.9759 558.494 32.9759C557.741 32.9759 557.085 33.1629 556.526 33.5369C555.968 33.9062 555.535 34.446 555.227 35.1562C554.919 35.8617 554.765 36.7187 554.765 37.7273C554.765 38.7642 554.919 39.6354 555.227 40.3409C555.539 41.0464 555.975 41.5791 556.534 41.9389C557.092 42.2988 557.739 42.4787 558.472 42.4787C558.884 42.4787 559.266 42.4242 559.616 42.3153C559.971 42.2064 560.286 42.0478 560.561 41.8395C560.835 41.6264 561.062 41.3684 561.242 41.0653C561.427 40.7623 561.555 40.4167 561.626 40.0284L564.737 40.0426C564.656 40.7102 564.455 41.3542 564.133 41.9744C563.816 42.59 563.387 43.1416 562.847 43.6293C562.312 44.1122 561.673 44.4957 560.93 44.7798C560.191 45.0592 559.356 45.1989 558.423 45.1989C557.125 45.1989 555.965 44.9053 554.943 44.3182C553.925 43.7311 553.12 42.8812 552.528 41.7685C551.941 40.6558 551.647 39.3087 551.647 37.7273C551.647 36.1411 551.945 34.7917 552.542 33.679C553.139 32.5663 553.948 31.7187 554.971 31.1364C555.994 30.5492 557.144 30.2557 558.423 30.2557C559.266 30.2557 560.047 30.3741 560.767 30.6108C561.491 30.8475 562.133 31.1932 562.691 31.6477C563.25 32.0975 563.704 32.6491 564.055 33.3026C564.41 33.956 564.637 34.7041 564.737 35.5469Z" fill="white"/>
</svg>
